<?xml version="1.0" encoding="utf-8"?>
<!-- Generator: Adobe Illustrator 16.0.0, SVG Export Plug-In . SVG Version: 6.00 Build 0)  -->
<!DOCTYPE svg PUBLIC "-//W3C//DTD SVG 1.1//EN" "http://www.w3.org/Graphics/SVG/1.1/DTD/svg11.dtd">
<svg version="1.1" id="Capa_1" xmlns="http://www.w3.org/2000/svg" xmlns:xlink="http://www.w3.org/1999/xlink" x="0px" y="0px"
	 width="21.491px" height="57.623px" viewBox="0 0 21.491 57.623" enable-background="new 0 0 21.491 57.623" xml:space="preserve">
<g>
	<ellipse fill="#AD8B60" cx="10.759" cy="2.025" rx="1.649" ry="2.025"/>
	<g>
		<path fill="#AD8B60" d="M2.536,21.333c0.431,0.989,3.571,7.234,0.725,12.06c-0.133,0.227-0.259,0.464-0.378,0.711
			c2.567-0.671,5.216-1.012,7.918-1.012c2.655,0,5.261,0.328,7.789,0.978c-0.114-0.235-0.234-0.462-0.361-0.677
			c-2.846-4.825,0.295-11.07,0.727-12.06c0.43-0.99,2.869-4.378,2.497-10.317c0,0,0.069-0.725-0.604-0.973
			c-1.618-0.6-5.358-1.212-6.109-1.746c-0.65-0.462-0.484-0.818-0.484-2.631c0-0.767-0.489-2.203-1.396-1.867
			c0,0-0.485,1.78-2.115,1.78c-1.611,0-2.114-1.78-2.114-1.78C7.724,3.463,7.236,4.899,7.236,5.666c0,1.813,0.167,2.169-0.483,2.631
			c-0.751,0.534-4.492,1.146-6.11,1.746c-0.673,0.249-0.605,0.973-0.605,0.973C-0.333,16.955,2.106,20.343,2.536,21.333z"/>
	</g>
	<g>
		<path fill="#AD8B60" d="M2.22,35.846c-1.703,5.181-1.427,12.658-1.427,12.658c3.171,2.065,16.732,2.065,19.905,0
			c0,0,0.276-7.512-1.439-12.694c-2.711-0.797-5.553-1.211-8.457-1.211C7.852,34.599,4.969,35.024,2.22,35.846z"/>
	</g>
	<rect x="8.747" y="51.623" fill="#AD8B60" width="4" height="6"/>
</g>
</svg>
